<svg width="31" height="41" viewBox="0 0 31 41" fill="none"
    xmlns="http://www.w3.org/2000/svg">
    <path d="M6.15502 24.0389C5.53787 22.3433 5.1791 20.6021 5.06071 18.843C4.85398 16.0613 5.23898 13.3082 6.13966 10.7469C6.90071 8.43123 8.03502 6.15854 9.50082 3.99333C12.0156 4.70979 14.3454 5.72172 16.417 7.00653C18.753 8.3895 20.8173 10.2507 22.4469 12.5142C23.4871 13.9379 24.3316 15.5026 24.9489 17.1985L24.9794 17.283L25.0116 17.3707C26.9515 22.7005 26.4841 28.3196 24.1649 33.0372C21.8243 31.9629 20.6037 31.1586 18.7813 29.5109C18.5484 31.7729 18.0795 33.0881 17.019 35.5102L17.0144 35.508C16.9886 35.5614 16.9627 35.6148 16.9365 35.6681C12.1275 33.5451 8.1576 29.5409 6.21771 24.2111L6.18595 24.1232L6.15502 24.0389Z" fill="#FF8DAF"/>
    <path d="M21.4709 37.206C21.5149 37.2188 21.559 37.2314 21.6031 37.244C21.6277 37.2076 21.6523 37.1712 21.6767 37.1347C21.6095 37.1621 21.5409 37.1858 21.4709 37.206Z" fill="#FF8DAF"/>
</svg>
